<?xml version="1.0" standalone="no"?>
<!DOCTYPE svg PUBLIC "-//W3C//DTD SVG 20010904//EN"
 "http://www.w3.org/TR/2001/REC-SVG-20010904/DTD/svg10.dtd">
<svg version="1.0" xmlns="http://www.w3.org/2000/svg"
 width="1200.000000pt" height="630.000000pt" viewBox="0 0 1200.000000 630.000000"
 preserveAspectRatio="xMidYMid meet">

<g transform="translate(0.000000,630.000000) scale(0.100000,-0.100000)"
fill="#000000" stroke="none">
<path d="M5730 6289 c-538 -48 -1073 -241 -1515 -547 -279 -192 -582 -492
-782 -772 -86 -120 -196 -306 -259 -435 -123 -255 -196 -471 -269 -802 -3 -13
-14 -88 -25 -169 -111 -818 108 -1647 609 -2311 645 -854 1691 -1327 2747
-1243 692 55 1331 326 1844 781 207 183 416 424 555 639 259 401 408 798 482
1282 25 168 28 205 26 448 -1 269 -14 410 -58 620 -86 414 -270 839 -508 1175
-219 310 -496 584 -807 797 -592 406 -1329 600 -2040 537z m515 -259 c563 -48
1106 -266 1552 -623 l113 -90 -19 -31 c-14 -23 -37 -37 -83 -54 -75 -28 -118
-65 -118 -103 0 -45 10 -59 41 -59 26 0 32 -7 54 -55 l24 -56 38 17 c74 32 79
31 87 -22 12 -91 15 -88 -59 -80 -36 4 -88 4 -116 0 -48 -6 -54 -10 -96 -68
-70 -97 -66 -94 -138 -101 -73 -8 -76 -11 -89 -93 -6 -41 -5 -43 24 -54 28 -9
30 -13 24 -42 -3 -17 -9 -34 -13 -38 -3 -4 -38 -1 -77 7 -58 11 -81 11 -133 0
-70 -14 -74 -17 -89 -62 -10 -29 -2 -141 13 -181 10 -28 73 -42 183 -42 115 0
121 2 138 50 5 14 41 67 79 118 75 98 72 97 147 76 11 -3 34 10 61 35 24 23
47 41 49 41 3 0 8 -13 11 -29 5 -24 26 -43 104 -96 54 -36 105 -70 113 -75 12
-7 13 -13 4 -27 -9 -14 -24 -18 -62 -18 l-50 1 14 -28 c18 -34 67 -45 118 -27
34 12 36 15 36 60 0 34 4 49 16 53 25 10 3 30 -83 77 -76 42 -90 59 -108 132
-7 27 -7 27 50 27 55 0 58 -1 135 -67 l78 -68 1 -53 c1 -50 5 -58 53 -113 29
-32 56 -59 59 -59 4 0 15 34 25 76 16 66 23 80 49 95 46 29 55 25 55 -25 0
-57 11 -85 51 -130 l32 -37 76 2 76 2 37 -109 c21 -60 36 -115 33 -121 -3 -10
-37 -13 -121 -13 l-117 0 -67 50 c-71 52 -105 60 -189 44 -29 -6 -31 -9 -31
-50 0 -42 -1 -44 -29 -44 -16 0 -34 7 -41 15 -13 15 -35 22 -202 65 l-88 23 0
82 0 82 -47 -4 c-241 -18 -273 -23 -322 -48 -44 -22 -63 -25 -149 -25 -98 0
-100 0 -176 -42 l-76 -43 0 -81 0 -82 -122 -88 c-212 -151 -197 -136 -185
-189 9 -40 13 -45 38 -45 35 0 41 -10 33 -58 -4 -29 -13 -43 -30 -51 -23 -10
-24 -14 -24 -133 l0 -123 140 -158 141 -157 54 0 c29 0 57 5 60 10 4 6 53 10
114 10 106 0 108 0 136 30 26 27 35 30 94 30 61 0 67 -2 101 -35 33 -32 40
-35 123 -41 101 -8 93 7 77 -153 l-11 -101 84 -148 c47 -81 92 -162 101 -180
l17 -33 -52 -96 c-46 -84 -52 -103 -50 -147 2 -44 8 -56 47 -98 l44 -47 0
-114 0 -113 55 -74 55 -74 0 -93 0 -93 46 0 46 0 -43 -52 c-24 -29 -97 -107
-164 -173 -420 -420 -946 -695 -1530 -799 -481 -86 -992 -47 -1435 109 -180
63 -233 86 -387 165 -556 286 -1001 739 -1278 1301 -78 158 -157 367 -199 529
-146 556 -123 1157 65 1688 22 62 47 127 54 145 14 31 14 29 15 -48 l1 -80 59
-28 60 -28 0 -114 0 -114 56 -96 c32 -53 62 -98 68 -100 6 -2 27 -6 47 -9 35
-6 37 -5 43 28 6 30 0 45 -49 119 -46 71 -56 96 -65 153 -14 98 -14 96 22 92
31 -3 32 -4 48 -88 15 -80 21 -93 94 -198 l77 -112 -21 -39 -22 -38 53 -79 54
-78 115 -27 c139 -34 127 -33 132 -11 5 16 12 18 49 13 42 -6 44 -7 47 -43 3
-32 7 -39 30 -44 162 -33 158 -31 249 -134 47 -52 93 -98 102 -102 9 -4 39 -7
67 -7 28 -1 72 -4 97 -7 52 -7 51 -7 62 -124 l6 -65 -74 -50 -74 -50 -6 -95
c-4 -52 -11 -110 -16 -129 -10 -33 -8 -37 99 -172 60 -76 112 -150 115 -164 3
-14 7 -36 10 -49 4 -19 13 -26 45 -31 22 -4 66 -25 97 -47 32 -22 73 -49 90
-61 l33 -22 0 -248 0 -249 30 -11 c36 -13 36 -19 11 -145 l-18 -93 50 -65 49
-66 -7 -118 -7 -119 63 -112 c56 -97 75 -122 153 -190 l88 -79 84 0 c83 0 85
1 95 27 8 22 7 30 -9 43 -11 8 -40 32 -64 53 l-45 37 9 48 c6 26 14 65 18 87
5 22 7 42 5 43 -2 2 -21 6 -44 9 -24 3 -49 15 -62 29 l-23 24 37 38 c20 20 38
48 39 62 3 21 -3 26 -34 34 -30 8 -38 14 -38 33 0 23 4 25 83 38 21 3 76 24
123 47 76 36 87 45 109 88 13 26 67 101 119 168 l95 121 -20 78 c-24 100 -24
106 7 153 l27 40 82 0 83 0 56 46 c31 25 56 50 56 57 0 7 9 84 18 173 l18 161
62 79 c58 75 93 158 74 175 -4 4 -29 15 -56 25 -42 15 -55 27 -85 76 l-36 58
-121 0 c-116 0 -125 2 -225 39 -115 43 -116 44 -118 136 -1 37 -10 64 -35 105
-31 52 -35 55 -82 62 -27 3 -69 7 -94 7 l-45 1 -54 84 c-44 70 -60 87 -95 100
-22 9 -42 13 -44 9 -10 -31 -25 -36 -100 -41 l-79 -4 -29 38 c-15 22 -29 40
-30 42 -1 2 -42 12 -91 23 l-88 20 -30 -33 c-16 -18 -50 -56 -75 -85 l-45 -51
-105 17 c-58 9 -111 20 -117 24 -7 5 -13 27 -13 50 0 23 -3 79 -6 124 l-7 81
-66 12 c-111 19 -107 13 -67 83 34 61 39 108 14 123 -5 3 -57 -26 -116 -64
-92 -61 -112 -70 -142 -66 -101 13 -99 12 -126 66 -24 47 -25 54 -14 102 7 28
31 86 53 129 41 78 41 78 129 122 l87 45 170 0 170 0 3 -52 3 -53 55 -26 55
-26 3 91 c3 90 3 91 40 129 20 21 78 65 128 97 94 61 104 72 104 119 0 41 173
207 273 261 47 25 82 52 87 65 4 12 35 45 69 74 l61 53 32 -16 c30 -15 33 -15
55 6 l24 23 -48 15 c-38 12 -49 20 -51 39 -5 31 21 51 63 51 35 0 75 -24 75
-46 0 -16 15 -17 84 -8 36 5 50 13 58 29 7 16 16 21 34 17 31 -6 33 -45 3 -65
-14 -11 -20 -23 -17 -43 3 -25 10 -31 58 -47 30 -10 74 -20 98 -24 l42 -6 0
34 c0 33 -4 37 -66 67 -79 39 -82 60 -11 80 l47 13 0 55 c0 51 -2 56 -31 72
-76 42 -79 46 -79 133 0 43 -2 79 -5 79 -3 0 -37 -16 -75 -35 -38 -19 -83 -35
-100 -35 -30 0 -30 0 -24 48 3 26 7 52 9 59 6 18 -8 24 -112 48 l-93 22 -40
-29 -39 -29 -3 -102 -3 -101 -76 -24 -76 -25 -31 -62 c-23 -47 -37 -64 -57
-69 -15 -4 -30 -5 -32 -2 -3 3 -5 39 -5 80 0 83 6 78 -93 92 -89 12 -123 39
-144 114 -11 37 -11 46 0 53 221 132 287 165 339 169 33 3 35 1 40 -32 5 -32
8 -35 40 -35 29 0 36 4 38 23 2 15 10 22 25 22 12 0 29 5 37 10 13 9 13 12 -2
21 -10 5 -18 18 -18 28 0 14 10 20 41 24 31 4 53 16 83 45 39 38 45 40 135 51
l93 10 39 -32 c21 -18 39 -34 39 -37 0 -3 -45 -29 -100 -58 -55 -29 -100 -56
-100 -60 0 -4 48 -18 108 -31 174 -38 156 -39 176 13 l18 46 62 0 c62 0 62 0
79 36 21 43 17 50 -28 58 -35 7 -35 7 -35 59 l0 52 -132 59 -133 59 -100 -10
c-78 -8 -110 -16 -147 -37 l-48 -28 0 -64 0 -64 -29 0 c-52 0 -79 16 -86 51
-7 30 -3 37 39 77 26 24 45 47 42 50 -9 9 -152 15 -191 8 -29 -6 -39 -14 -50
-39 -15 -36 -7 -47 34 -47 21 0 23 -3 17 -32 -8 -41 -20 -48 -79 -48 -41 0
-49 -3 -59 -25 -11 -24 -15 -25 -100 -25 -64 0 -88 3 -88 13 0 6 -3 29 -6 50
l-7 37 69 0 69 0 53 51 c29 28 52 52 50 54 -2 1 -14 8 -27 15 -21 11 -27 8
-60 -24 -35 -34 -41 -36 -103 -36 l-67 0 -38 55 -38 55 -82 0 -82 0 -68 -51
c-37 -28 -74 -53 -80 -56 -33 -13 -6 -23 61 -23 68 0 74 -2 79 -22 4 -14 0
-29 -10 -40 -15 -17 -13 -18 39 -18 87 0 115 -9 123 -37 3 -14 4 -27 2 -29 -2
-2 -45 -1 -95 2 -82 6 -91 9 -94 28 -2 17 -16 24 -71 37 -37 9 -78 24 -92 33
-17 11 -47 16 -97 16 l-73 0 130 86 c124 81 367 208 485 254 439 170 883 237
1325 200z m-1775 -687 c0 -48 -25 -63 -102 -63 l-69 0 3 33 c3 28 7 32 36 35
17 2 32 7 32 13 0 5 23 9 50 9 48 0 50 -1 50 -27z m0 -163 c0 -25 -5 -30 -33
-35 -55 -11 -121 -2 -125 16 -2 11 13 19 60 31 93 23 98 23 98 -12z m3709
-136 c33 -40 61 -75 61 -79 0 -4 -13 -24 -29 -44 l-29 -36 -98 5 c-83 4 -99 8
-102 22 -2 12 14 26 57 48 l61 30 0 66 c0 36 4 64 9 62 4 -1 36 -35 70 -74z
m-3481 -153 c23 -14 -3 -90 -34 -101 -41 -16 -51 -12 -73 30 -12 22 -21 43
-21 45 0 2 12 11 28 19 30 17 80 20 100 7z m242 -216 c0 -9 7 -18 15 -21 9 -4
15 -19 15 -35 l0 -29 -87 1 c-108 1 -138 9 -138 34 0 32 70 65 138 65 45 0 57
-3 57 -15z m-1424 -91 c-25 -31 -46 -52 -46 -48 0 4 19 40 42 78 34 57 43 67
46 49 2 -15 -12 -41 -42 -79z m1516 49 c25 -22 23 -33 -7 -33 -20 0 -25 5 -25
25 0 29 7 31 32 8z m138 -85 c0 -12 -42 -20 -53 -9 -7 7 -6 15 2 25 10 12 16
13 32 3 10 -6 19 -15 19 -19z m-286 10 c-6 -10 -97 -141 -109 -156 -1 -1 -14
3 -29 9 -23 11 -26 16 -20 48 4 20 21 52 38 73 27 32 37 36 79 37 36 1 46 -2
41 -11z m166 -17 c0 -33 -34 -61 -75 -61 -23 0 -25 4 -25 45 l0 45 50 0 c48 0
50 -1 50 -29z m95 -53 c40 -11 45 -15 45 -40 0 -27 -2 -28 -48 -28 -43 0 -50
3 -60 25 -26 56 -15 64 63 43z m3471 -113 l24 -55 -40 0 -40 0 0 63 c0 99 9
97 56 -8z m-3586 53 c0 -38 -38 -68 -87 -68 -42 0 -44 1 -41 28 2 19 9 28 25
30 12 2 27 10 33 18 7 8 25 14 41 14 23 0 29 -4 29 -22z"/>
<path d="M7405 5068 c-45 -9 -75 -39 -75 -74 0 -18 14 -33 55 -60 65 -43 75
-78 26 -89 -30 -6 -41 -26 -41 -79 l0 -29 97 5 c95 5 97 6 124 39 l28 34 -35
18 c-55 28 -96 92 -126 198 l-13 45 -40 -8z"/>
<path d="M7267 4937 c-44 -14 -97 -85 -97 -129 0 -26 3 -28 38 -28 55 0 148
67 154 110 4 26 0 34 -23 46 -15 8 -29 14 -31 13 -2 0 -20 -6 -41 -12z"/>
<path d="M5754 4575 c-13 -20 -25 -25 -55 -25 -42 0 -52 -18 -25 -46 30 -29
96 -7 96 32 0 8 8 14 19 14 17 0 49 26 40 34 -2 2 -16 6 -31 10 -22 5 -31 1
-44 -19z"/>
<path d="M5562 4537 c-5 -7 -13 -22 -17 -35 -6 -22 -4 -23 27 -20 24 2 34 8
36 23 3 25 -32 50 -46 32z"/>
</g>
</svg>
